<?xml version="1.0" encoding="UTF-8" standalone="no"?>
<!DOCTYPE svg PUBLIC "-//W3C//DTD SVG 1.1//EN" "http://www.w3.org/Graphics/SVG/1.1/DTD/svg11.dtd">
<!-- Generated by graphviz version 2.40.1 (20161225.0304)
 -->
<!-- Title: cosine_1500_5 Pages: 1 -->
<svg width="973pt" height="843pt" viewBox="0.00 0.00 972.50 843.20" xmlns="http://www.w3.org/2000/svg" xmlns:xlink="http://www.w3.org/1999/xlink">
<g id="graph0" class="graph" transform="scale(1 1) rotate(0) translate(4 839.2)">
<title>cosine_1500_5</title>
<polygon fill="#ffffff" stroke="transparent" points="-4,4 -4,-839.2 968.5,-839.2 968.5,4 -4,4"/>
<!-- T1 -->
<g id="node1" class="node">
<title>T1</title>
<ellipse fill="#d3d3d3" stroke="#000000" cx="552" cy="-106.8" rx="27" ry="18"/>
<text text-anchor="middle" x="552" y="-102.6" font-family="Times,serif" font-size="14.00" fill="#000000">T1</text>
</g>
<!-- T0 -->
<g id="node2" class="node">
<title>T0</title>
<ellipse fill="#d3d3d3" stroke="#000000" cx="552" cy="-18" rx="27" ry="18"/>
<text text-anchor="middle" x="552" y="-13.8" font-family="Times,serif" font-size="14.00" fill="#000000">T0</text>
</g>
<!-- T1&#45;&#45;T0 -->
<g id="edge1" class="edge">
<title>T1--T0</title>
<path fill="none" stroke="#000000" d="M552,-88.4006C552,-73.0587 552,-51.322 552,-36.072"/>
<text text-anchor="middle" x="564.25" y="-58.2" font-family="Times,serif" font-size="14.00" fill="#000000">4.85</text>
</g>
<!-- T2 -->
<g id="node3" class="node">
<title>T2</title>
<ellipse fill="#d3d3d3" stroke="#000000" cx="343" cy="-195.6" rx="27" ry="18"/>
<text text-anchor="middle" x="343" y="-191.4" font-family="Times,serif" font-size="14.00" fill="#000000">T2</text>
</g>
<!-- T2&#45;&#45;T1 -->
<g id="edge3" class="edge">
<title>T2--T1</title>
<path fill="none" stroke="#000000" d="M365.7461,-185.8311C390.5124,-175.2049 431.2957,-157.7368 466.5,-142.8 487.702,-133.8043 511.8957,-123.6255 529.1232,-116.3923"/>
<text text-anchor="middle" x="474.75" y="-147" font-family="Times,serif" font-size="14.00" fill="#000000">4.4</text>
</g>
<!-- T2&#45;&#45;T0 -->
<g id="edge2" class="edge">
<title>T2--T0</title>
<path fill="none" stroke="#000000" d="M352.9641,-178.3538C370.7361,-148.9852 410.6154,-89.0482 459,-54 479.3308,-39.273 506.4665,-29.6796 526.176,-24.129"/>
<text text-anchor="middle" x="432.25" y="-102.6" font-family="Times,serif" font-size="14.00" fill="#000000">4.41</text>
</g>
<!-- T3 -->
<g id="node4" class="node">
<title>T3</title>
<ellipse fill="#d3d3d3" stroke="#000000" cx="275" cy="-284.4" rx="27" ry="18"/>
<text text-anchor="middle" x="275" y="-280.2" font-family="Times,serif" font-size="14.00" fill="#000000">T3</text>
</g>
<!-- T3&#45;&#45;T1 -->
<g id="edge5" class="edge">
<title>T3--T1</title>
<path fill="none" stroke="#000000" d="M295.9886,-272.989C334.2485,-251.9443 417.5206,-205.0095 484,-159.6 502.0195,-147.2916 521.6029,-131.8489 535.1055,-120.8504"/>
<text text-anchor="middle" x="468.25" y="-191.4" font-family="Times,serif" font-size="14.00" fill="#000000">3.48</text>
</g>
<!-- T3&#45;&#45;T0 -->
<g id="edge4" class="edge">
<title>T3--T0</title>
<path fill="none" stroke="#000000" d="M269.9286,-266.4571C267.8215,-256.0761 266.5715,-242.8761 270,-231.6 293.7864,-153.3683 322.6984,-140.5581 386,-88.8 406.9603,-71.662 411.6736,-65.8857 436,-54 465.5557,-39.5594 502.1656,-29.3501 526.2572,-23.5776"/>
<text text-anchor="middle" x="336.75" y="-147" font-family="Times,serif" font-size="14.00" fill="#000000">10.31</text>
</g>
<!-- T3&#45;&#45;T2 -->
<g id="edge6" class="edge">
<title>T3--T2</title>
<path fill="none" stroke="#000000" d="M272.5318,-266.4331C271.9548,-255.5421 272.9464,-241.8237 279.5,-231.6 288.3223,-217.8371 304.3774,-208.8034 318.1358,-203.2275"/>
<text text-anchor="middle" x="292.25" y="-235.8" font-family="Times,serif" font-size="14.00" fill="#000000">2.62</text>
</g>
<!-- T4 -->
<g id="node5" class="node">
<title>T4</title>
<ellipse fill="#d3d3d3" stroke="#000000" cx="583" cy="-373.2" rx="27" ry="18"/>
<text text-anchor="middle" x="583" y="-369" font-family="Times,serif" font-size="14.00" fill="#000000">T4</text>
</g>
<!-- T4&#45;&#45;T1 -->
<g id="edge8" class="edge">
<title>T4--T1</title>
<path fill="none" stroke="#000000" d="M580.8692,-354.8892C575.1924,-306.1046 559.7515,-173.4132 554.1047,-124.8866"/>
<text text-anchor="middle" x="580.25" y="-235.8" font-family="Times,serif" font-size="14.00" fill="#000000">3.03</text>
</g>
<!-- T4&#45;&#45;T0 -->
<g id="edge7" class="edge">
<title>T4--T0</title>
<path fill="none" stroke="#000000" d="M587.0516,-355.3412C588.2028,-349.5803 589.3257,-343.1469 590,-337.2 602.4391,-227.4994 600.8604,-198.452 588,-88.8 586.1623,-73.1309 587.6957,-68.2851 581,-54 577.5257,-46.5877 572.2162,-39.367 567.0854,-33.3619"/>
<text text-anchor="middle" x="610.25" y="-191.4" font-family="Times,serif" font-size="14.00" fill="#000000">4.56</text>
</g>
<!-- T4&#45;&#45;T2 -->
<g id="edge9" class="edge">
<title>T4--T2</title>
<path fill="none" stroke="#000000" d="M560.7251,-362.9875C545.9002,-356.0388 526.0831,-346.4572 509,-337.2 496.2404,-330.2856 494.1588,-326.5205 481,-320.4 458.6343,-309.9972 447.9867,-317.5232 428.5,-302.4 398.7591,-279.3188 406.3461,-260.3147 382,-231.6 375.4451,-223.8689 367.3227,-216.135 360.1901,-209.8281"/>
<text text-anchor="middle" x="441.25" y="-280.2" font-family="Times,serif" font-size="14.00" fill="#000000">1.16</text>
</g>
<!-- T4&#45;&#45;T3 -->
<g id="edge10" class="edge">
<title>T4--T3</title>
<path fill="none" stroke="#000000" d="M556.9068,-367.9421C532.0607,-362.3412 494.0326,-352.1994 463.5,-337.2 451.9765,-331.539 451.7349,-325.6086 440,-320.4 393.9065,-299.9411 335.2675,-290.7229 301.7484,-286.8761"/>
<text text-anchor="middle" x="471.75" y="-324.6" font-family="Times,serif" font-size="14.00" fill="#000000">2.4</text>
</g>
<!-- T5 -->
<g id="node6" class="node">
<title>T5</title>
<ellipse fill="#d3d3d3" stroke="#000000" cx="595" cy="-462" rx="27" ry="18"/>
<text text-anchor="middle" x="595" y="-457.8" font-family="Times,serif" font-size="14.00" fill="#000000">T5</text>
</g>
<!-- T5&#45;&#45;T1 -->
<g id="edge12" class="edge">
<title>T5--T1</title>
<path fill="none" stroke="#000000" d="M608.2995,-446.1498C612.5205,-440.2036 616.6883,-433.147 619,-426 652.9929,-320.9035 670.7352,-279.03 627,-177.6 615.9398,-151.9494 590.5089,-131.2698 572.3286,-119.0278"/>
<text text-anchor="middle" x="660.75" y="-280.2" font-family="Times,serif" font-size="14.00" fill="#000000">5.5</text>
</g>
<!-- T5&#45;&#45;T0 -->
<g id="edge11" class="edge">
<title>T5--T0</title>
<path fill="none" stroke="#000000" d="M613.4443,-448.4463C620.8972,-442.2533 629.1106,-434.4222 635,-426 676.845,-366.1587 684.7377,-338.6266 674,-266.4 659.2344,-167.0798 656.984,-134.526 597,-54 590.1865,-44.8532 580.5177,-36.7139 571.8876,-30.4986"/>
<text text-anchor="middle" x="683.25" y="-235.8" font-family="Times,serif" font-size="14.00" fill="#000000">3.06</text>
</g>
<!-- T5&#45;&#45;T2 -->
<g id="edge13" class="edge">
<title>T5--T2</title>
<path fill="none" stroke="#000000" d="M578.0908,-447.6011C551.9915,-425.8171 499.7944,-383.9775 451,-355.2 434.3824,-345.3994 425.2977,-350.6841 411.5,-337.2 392.555,-318.6856 362.9854,-246.9141 349.7738,-213.2357"/>
<text text-anchor="middle" x="424.25" y="-324.6" font-family="Times,serif" font-size="14.00" fill="#000000">1.69</text>
</g>
<!-- T5&#45;&#45;T3 -->
<g id="edge14" class="edge">
<title>T5--T3</title>
<path fill="none" stroke="#000000" d="M569.9763,-455.2019C540.9768,-447.1549 495.109,-433.8581 479,-426 439.8644,-406.9095 335.4753,-329.7833 293.1774,-298.095"/>
<text text-anchor="middle" x="434.25" y="-369" font-family="Times,serif" font-size="14.00" fill="#000000">0.99</text>
</g>
<!-- T5&#45;&#45;T4 -->
<g id="edge15" class="edge">
<title>T5--T4</title>
<path fill="none" stroke="#000000" d="M592.5716,-444.03C590.4897,-428.6236 587.5057,-406.542 585.4248,-391.1433"/>
<text text-anchor="middle" x="602.25" y="-413.4" font-family="Times,serif" font-size="14.00" fill="#000000">2.49</text>
</g>
<!-- T6 -->
<g id="node7" class="node">
<title>T6</title>
<ellipse fill="#d3d3d3" stroke="#000000" cx="435" cy="-550.8" rx="27" ry="18"/>
<text text-anchor="middle" x="435" y="-546.6" font-family="Times,serif" font-size="14.00" fill="#000000">T6</text>
</g>
<!-- T6&#45;&#45;T1 -->
<g id="edge17" class="edge">
<title>T6--T1</title>
<path fill="none" stroke="#000000" d="M440.1215,-533.079C451.83,-492.4148 481.2946,-389.2196 504,-302.4 521.0745,-237.1116 539.6858,-159.0918 547.812,-124.6454"/>
<text text-anchor="middle" x="513.75" y="-324.6" font-family="Times,serif" font-size="14.00" fill="#000000">12.56</text>
</g>
<!-- T6&#45;&#45;T0 -->
<g id="edge16" class="edge">
<title>T6--T0</title>
<path fill="none" stroke="#000000" d="M436.4255,-532.6689C439.8563,-486.9881 447.605,-369.7664 438,-355.2 426.8202,-338.2454 407.1798,-354.1546 396,-337.2 391.8897,-330.9665 391.5862,-326.4224 396,-320.4 411.7042,-298.9721 434.3946,-321.3636 453,-302.4 487.6583,-267.0745 497.7078,-134.7835 516,-88.8 523.5435,-69.837 534.397,-49.1366 542.2121,-35.0456"/>
<text text-anchor="middle" x="484.25" y="-280.2" font-family="Times,serif" font-size="14.00" fill="#000000">8.36</text>
</g>
<!-- T6&#45;&#45;T2 -->
<g id="edge18" class="edge">
<title>T6--T2</title>
<path fill="none" stroke="#000000" d="M414.4642,-538.5275C405.6007,-532.3579 395.7414,-524.1917 389,-514.8 355.0407,-467.4902 355.6733,-448.5407 345.5,-391.2 334.0499,-326.6629 338.4435,-248.2616 341.2994,-213.5819"/>
<text text-anchor="middle" x="358.25" y="-369" font-family="Times,serif" font-size="14.00" fill="#000000">4.43</text>
</g>
<!-- T6&#45;&#45;T3 -->
<g id="edge19" class="edge">
<title>T6--T3</title>
<path fill="none" stroke="#000000" d="M408.9732,-545.0893C390.7244,-539.9034 366.8522,-530.5856 351,-514.8 290.5621,-454.6157 278.1852,-345.4823 275.6516,-302.4964"/>
<text text-anchor="middle" x="311.25" y="-413.4" font-family="Times,serif" font-size="14.00" fill="#000000">6.22</text>
</g>
<!-- T6&#45;&#45;T4 -->
<g id="edge20" class="edge">
<title>T6--T4</title>
<path fill="none" stroke="#000000" d="M444.8658,-533.8346C464.3816,-500.654 507.8524,-428.7053 529,-409.2 539.0216,-399.9567 551.6335,-391.4086 562.1481,-384.9636"/>
<text text-anchor="middle" x="512.25" y="-457.8" font-family="Times,serif" font-size="14.00" fill="#000000">5.44</text>
</g>
<!-- T6&#45;&#45;T5 -->
<g id="edge21" class="edge">
<title>T6--T5</title>
<path fill="none" stroke="#000000" d="M459.889,-543.5968C479.4007,-537.4085 506.8616,-527.4828 529,-514.8 539.186,-508.9646 562.4207,-489.7985 578.4144,-476.2444"/>
<text text-anchor="middle" x="558.75" y="-502.2" font-family="Times,serif" font-size="14.00" fill="#000000">6.5</text>
</g>
<!-- T7 -->
<g id="node8" class="node">
<title>T7</title>
<ellipse fill="#d3d3d3" stroke="#000000" cx="452" cy="-639.6" rx="27" ry="18"/>
<text text-anchor="middle" x="452" y="-635.4" font-family="Times,serif" font-size="14.00" fill="#000000">T7</text>
</g>
<!-- T7&#45;&#45;T1 -->
<g id="edge23" class="edge">
<title>T7--T1</title>
<path fill="none" stroke="#000000" d="M475.9049,-630.6171C502.7955,-619.5219 546.435,-598.4166 575,-568.8 654.9197,-485.9381 672.6773,-450.8553 691,-337.2 698.4969,-290.6969 716.4687,-275.7307 700,-231.6 681.7362,-182.6591 664.1757,-174.9456 623,-142.8 608.5113,-131.4888 589.9135,-122.2138 575.3869,-115.9123"/>
<text text-anchor="middle" x="699.25" y="-369" font-family="Times,serif" font-size="14.00" fill="#000000">5.18</text>
</g>
<!-- T7&#45;&#45;T0 -->
<g id="edge22" class="edge">
<title>T7--T0</title>
<path fill="none" stroke="#000000" d="M425.442,-636.3238C386.8632,-630.1414 315.6163,-613.124 276,-568.8 165.821,-445.528 102,-405.3342 102,-240 102,-240 102,-240 102,-106.8 102,-63.4008 428.3214,-29.5218 525.1981,-20.4202"/>
<text text-anchor="middle" x="124.25" y="-324.6" font-family="Times,serif" font-size="14.00" fill="#000000">5.28</text>
</g>
<!-- T7&#45;&#45;T2 -->
<g id="edge24" class="edge">
<title>T7--T2</title>
<path fill="none" stroke="#000000" d="M426.6496,-632.8847C395.3983,-623.4154 342.4529,-603.3221 310,-568.8 260.8277,-516.4924 251.7864,-495.6791 234.5,-426 224.6384,-386.2491 161.3697,-460.9832 239,-266.4 252.4357,-232.7229 292.176,-212.9514 318.4578,-203.212"/>
<text text-anchor="middle" x="247.25" y="-413.4" font-family="Times,serif" font-size="14.00" fill="#000000">4.22</text>
</g>
<!-- T7&#45;&#45;T3 -->
<g id="edge25" class="edge">
<title>T7--T3</title>
<path fill="none" stroke="#000000" d="M431.0234,-628.0594C392.4479,-605.5 311.2082,-551.45 278.5,-480 251.0036,-419.935 263.2685,-338.2317 270.7483,-302.4424"/>
<text text-anchor="middle" x="291.25" y="-457.8" font-family="Times,serif" font-size="14.00" fill="#000000">3.43</text>
</g>
<!-- T7&#45;&#45;T4 -->
<g id="edge26" class="edge">
<title>T7--T4</title>
<path fill="none" stroke="#000000" d="M463.6231,-622.952C467.3483,-617.0463 471.2231,-610.2193 474,-603.6 492.719,-558.9788 473.1378,-537.9094 500.5,-498 508.3444,-486.5584 516.8195,-490.4001 526,-480 550.0621,-452.7412 567.6336,-413.5509 576.4982,-391.0039"/>
<text text-anchor="middle" x="512.25" y="-502.2" font-family="Times,serif" font-size="14.00" fill="#000000">1.94</text>
</g>
<!-- T7&#45;&#45;T5 -->
<g id="edge27" class="edge">
<title>T7--T5</title>
<path fill="none" stroke="#000000" d="M472.6428,-627.8989C482.7966,-621.5295 494.7975,-613.03 504,-603.6 530.2931,-576.6569 526.1539,-561.5147 550.5,-532.8 558.1275,-523.8038 563.0152,-524.3039 570,-514.8 577.9283,-504.0123 584.3273,-490.3115 588.6662,-479.5699"/>
<text text-anchor="middle" x="562.25" y="-546.6" font-family="Times,serif" font-size="14.00" fill="#000000">1.09</text>
</g>
<!-- T7&#45;&#45;T6 -->
<g id="edge28" class="edge">
<title>T7--T6</title>
<path fill="none" stroke="#000000" d="M448.5598,-621.63C445.6104,-606.2236 441.383,-584.142 438.4351,-568.7433"/>
<text text-anchor="middle" x="457.25" y="-591" font-family="Times,serif" font-size="14.00" fill="#000000">6.91</text>
</g>
<!-- T8 -->
<g id="node9" class="node">
<title>T8</title>
<ellipse fill="#d3d3d3" stroke="#000000" cx="594" cy="-728.4" rx="27" ry="18"/>
<text text-anchor="middle" x="594" y="-724.2" font-family="Times,serif" font-size="14.00" fill="#000000">T8</text>
</g>
<!-- T8&#45;&#45;T1 -->
<g id="edge30" class="edge">
<title>T8--T1</title>
<path fill="none" stroke="#000000" d="M608.5452,-713.0581C613.8569,-706.9435 619.6278,-699.6439 624,-692.4 654.7078,-641.5229 656.922,-625.4095 675,-568.8 720.9269,-424.9849 748.3111,-379.0722 716,-231.6 705.303,-182.7775 690.7431,-166.9786 647,-142.8 624.4628,-130.3428 596.7328,-120.3854 577.0633,-114.1282"/>
<text text-anchor="middle" x="731.75" y="-413.4" font-family="Times,serif" font-size="14.00" fill="#000000">7.1</text>
</g>
<!-- T8&#45;&#45;T0 -->
<g id="edge29" class="edge">
<title>T8--T0</title>
<path fill="none" stroke="#000000" d="M614.0108,-715.8417C623.1793,-709.502 633.8032,-701.278 642,-692.4 654.4127,-678.9557 656.0393,-674.0758 664,-657.6 741.0187,-498.1984 765.4466,-441.4466 739,-266.4 722.7038,-158.5379 699.8383,-123.7922 616,-54 603.4589,-43.56 587.4589,-34.56 574.5942,-28.17"/>
<text text-anchor="middle" x="761.25" y="-369" font-family="Times,serif" font-size="14.00" fill="#000000">10.1</text>
</g>
<!-- T8&#45;&#45;T2 -->
<g id="edge31" class="edge">
<title>T8--T2</title>
<path fill="none" stroke="#000000" d="M573.6569,-716.1321C569.2762,-713.9214 564.5821,-711.8592 560,-710.4 501.0635,-691.6314 483.2369,-701.1072 422,-692.4 321.3838,-678.0935 296.2963,-674 196,-657.6 149.7054,-650.0301 92,-686.5094 92,-639.6 92,-639.6 92,-639.6 92,-506.4 92,-423.1571 70.6199,-391.4461 114,-320.4 159.6571,-245.6249 267.1265,-212.5876 316.8805,-200.913"/>
<text text-anchor="middle" x="107.75" y="-457.8" font-family="Times,serif" font-size="14.00" fill="#000000">12.22</text>
</g>
<!-- T8&#45;&#45;T3 -->
<g id="edge32" class="edge">
<title>T8--T3</title>
<path fill="none" stroke="#000000" d="M573.5059,-716.5607C569.1361,-714.319 564.4846,-712.1358 560,-710.4 530.0425,-698.8049 520.2395,-703.2385 490,-692.4 473.3789,-686.4426 470.6107,-681.5864 454,-675.6 334.7369,-632.6182 268.2675,-692.6106 178,-603.6 89.5381,-516.3698 217.4189,-351.2206 261.205,-299.9684"/>
<text text-anchor="middle" x="163.25" y="-502.2" font-family="Times,serif" font-size="14.00" fill="#000000">3.24</text>
</g>
<!-- T8&#45;&#45;T4 -->
<g id="edge33" class="edge">
<title>T8--T4</title>
<path fill="none" stroke="#000000" d="M601.5645,-711.0633C603.8917,-705.22 606.2883,-698.606 608,-692.4 637.4786,-585.5184 649.3236,-553.3476 631,-444 628.2962,-427.8646 627.6728,-423.0725 619,-409.2 613.9396,-401.1057 606.7417,-393.4338 600.1104,-387.2684"/>
<text text-anchor="middle" x="654.75" y="-546.6" font-family="Times,serif" font-size="14.00" fill="#000000">14.02</text>
</g>
<!-- T8&#45;&#45;T5 -->
<g id="edge34" class="edge">
<title>T8--T5</title>
<path fill="none" stroke="#000000" d="M594.0687,-710.0892C594.2519,-661.3046 594.75,-528.6132 594.9321,-480.0866"/>
<text text-anchor="middle" x="606.25" y="-591" font-family="Times,serif" font-size="14.00" fill="#000000">1.94</text>
</g>
<!-- T8&#45;&#45;T6 -->
<g id="edge35" class="edge">
<title>T8--T6</title>
<path fill="none" stroke="#000000" d="M581.2928,-712.1341C560.0278,-685.213 515.4732,-630.0702 474,-586.8 466.9864,-579.4825 458.7995,-571.8067 451.7425,-565.4316"/>
<text text-anchor="middle" x="547.25" y="-635.4" font-family="Times,serif" font-size="14.00" fill="#000000">9.48</text>
</g>
<!-- T8&#45;&#45;T7 -->
<g id="edge36" class="edge">
<title>T8--T7</title>
<path fill="none" stroke="#000000" d="M570.4901,-719.2986C554.7007,-712.754 533.7157,-703.2035 516.5,-692.4 498.7263,-681.2464 480.3942,-665.7886 467.8384,-654.4808"/>
<text text-anchor="middle" x="531.75" y="-679.8" font-family="Times,serif" font-size="14.00" fill="#000000">12.77</text>
</g>
<!-- T9 -->
<g id="node10" class="node">
<title>T9</title>
<ellipse fill="#d3d3d3" stroke="#000000" cx="594" cy="-817.2" rx="27" ry="18"/>
<text text-anchor="middle" x="594" y="-813" font-family="Times,serif" font-size="14.00" fill="#000000">T9</text>
</g>
<!-- T9&#45;&#45;T1 -->
<g id="edge38" class="edge">
<title>T9--T1</title>
<path fill="none" stroke="#000000" d="M620.7785,-814.8608C693.109,-807.8093 887,-783.7455 887,-728.4 887,-728.4 887,-728.4 887,-417.6 887,-263.0739 810.3849,-215.4463 674,-142.8 643.2044,-126.3965 603.9499,-116.528 578.4085,-111.3762"/>
<text text-anchor="middle" x="899.25" y="-457.8" font-family="Times,serif" font-size="14.00" fill="#000000">0.07</text>
</g>
<!-- T9&#45;&#45;T0 -->
<g id="edge37" class="edge">
<title>T9--T0</title>
<path fill="none" stroke="#000000" d="M621.15,-816.0578C702.7163,-811.8954 940,-794.1372 940,-728.4 940,-728.4 940,-728.4 940,-106.8 940,-32.6873 667.6004,-20.4283 579.2834,-18.4013"/>
<text text-anchor="middle" x="952.25" y="-413.4" font-family="Times,serif" font-size="14.00" fill="#000000">0.07</text>
</g>
<!-- T9&#45;&#45;T2 -->
<g id="edge39" class="edge">
<title>T9--T2</title>
<path fill="none" stroke="#000000" d="M566.9483,-816.3146C479.8406,-813.2791 207.3668,-802.2976 122,-781.2 64.6432,-767.0248 0,-787.4824 0,-728.4 0,-728.4 0,-728.4 0,-284.4 0,-219.2743 234.6719,-201.1311 315.7987,-196.8048"/>
<text text-anchor="middle" x="12.25" y="-502.2" font-family="Times,serif" font-size="14.00" fill="#000000">0.02</text>
</g>
<!-- T9&#45;&#45;T3 -->
<g id="edge40" class="edge">
<title>T9--T3</title>
<path fill="none" stroke="#000000" d="M566.8246,-815.7043C456.2495,-809.2634 46,-781.7704 46,-728.4 46,-728.4 46,-728.4 46,-506.4 46,-392.6102 193.5636,-318.4535 251.782,-293.6243"/>
<text text-anchor="middle" x="54.75" y="-546.6" font-family="Times,serif" font-size="14.00" fill="#000000">0.0</text>
</g>
<!-- T9&#45;&#45;T4 -->
<g id="edge41" class="edge">
<title>T9--T4</title>
<path fill="none" stroke="#000000" d="M620.5972,-813.6436C685.554,-804.2164 847,-775.998 847,-728.4 847,-728.4 847,-728.4 847,-595.2 847,-470.9396 673.5556,-402.266 607.8365,-380.7052"/>
<text text-anchor="middle" x="859.25" y="-591" font-family="Times,serif" font-size="14.00" fill="#000000">0.01</text>
</g>
<!-- T9&#45;&#45;T5 -->
<g id="edge42" class="edge">
<title>T9--T5</title>
<path fill="none" stroke="#000000" d="M614.4587,-805.2341C645.0771,-785.986 701.6128,-744.9253 724,-692.4 751.9348,-626.8589 748.7089,-591.9539 709,-532.8 687.4447,-500.6893 645.9102,-480.4528 619.3704,-470.1928"/>
<text text-anchor="middle" x="754.25" y="-635.4" font-family="Times,serif" font-size="14.00" fill="#000000">0.05</text>
</g>
<!-- T9&#45;&#45;T6 -->
<g id="edge43" class="edge">
<title>T9--T6</title>
<path fill="none" stroke="#000000" d="M571.9878,-806.3319C531.188,-784.717 445.3106,-731.9283 416,-657.6 404.1169,-627.466 416.7786,-589.6133 426.3673,-568.0169"/>
<text text-anchor="middle" x="447.25" y="-679.8" font-family="Times,serif" font-size="14.00" fill="#000000">23.7</text>
</g>
<!-- T9&#45;&#45;T7 -->
<g id="edge44" class="edge">
<title>T9--T7</title>
<path fill="none" stroke="#000000" d="M580.078,-801.411C559.6813,-778.0776 520.7625,-732.7846 490,-692.4 480.8296,-680.3612 470.8479,-666.459 463.4169,-655.9426"/>
<text text-anchor="middle" x="543.25" y="-724.2" font-family="Times,serif" font-size="14.00" fill="#000000">0.01</text>
</g>
<!-- T9&#45;&#45;T8 -->
<g id="edge45" class="edge">
<title>T9--T8</title>
<path fill="none" stroke="#000000" d="M594,-798.8006C594,-783.4587 594,-761.722 594,-746.472"/>
<text text-anchor="middle" x="606.25" y="-768.6" font-family="Times,serif" font-size="14.00" fill="#000000">0.27</text>
</g>
</g>
</svg>