<?xml version="1.0" encoding="UTF-8" standalone="no"?>
<!DOCTYPE svg PUBLIC "-//W3C//DTD SVG 1.1//EN" "http://www.w3.org/Graphics/SVG/1.1/DTD/svg11.dtd">
<!-- Generated by graphviz version 2.40.1 (20161225.0304)
 -->
<!-- Title: distance_2000_10 Pages: 1 -->
<svg width="1008pt" height="843pt" viewBox="0.00 0.00 1007.50 843.20" xmlns="http://www.w3.org/2000/svg" xmlns:xlink="http://www.w3.org/1999/xlink">
<g id="graph0" class="graph" transform="scale(1 1) rotate(0) translate(4 839.2)">
<title>distance_2000_10</title>
<polygon fill="#ffffff" stroke="transparent" points="-4,4 -4,-839.2 1003.5,-839.2 1003.5,4 -4,4"/>
<!-- T1 -->
<g id="node1" class="node">
<title>T1</title>
<ellipse fill="#d3d3d3" stroke="#000000" cx="557" cy="-106.8" rx="27" ry="18"/>
<text text-anchor="middle" x="557" y="-102.6" font-family="Times,serif" font-size="14.00" fill="#000000">T1</text>
</g>
<!-- T0 -->
<g id="node2" class="node">
<title>T0</title>
<ellipse fill="#d3d3d3" stroke="#000000" cx="557" cy="-18" rx="27" ry="18"/>
<text text-anchor="middle" x="557" y="-13.8" font-family="Times,serif" font-size="14.00" fill="#000000">T0</text>
</g>
<!-- T1&#45;&#45;T0 -->
<g id="edge1" class="edge">
<title>T1--T0</title>
<path fill="none" stroke="#000000" d="M557,-88.4006C557,-73.0587 557,-51.322 557,-36.072"/>
<text text-anchor="middle" x="572.75" y="-58.2" font-family="Times,serif" font-size="14.00" fill="#000000">66.82</text>
</g>
<!-- T2 -->
<g id="node3" class="node">
<title>T2</title>
<ellipse fill="#d3d3d3" stroke="#000000" cx="338" cy="-195.6" rx="27" ry="18"/>
<text text-anchor="middle" x="338" y="-191.4" font-family="Times,serif" font-size="14.00" fill="#000000">T2</text>
</g>
<!-- T2&#45;&#45;T1 -->
<g id="edge3" class="edge">
<title>T2--T1</title>
<path fill="none" stroke="#000000" d="M360.0642,-185.1707C383.7035,-174.1383 422.4282,-156.4706 456.5,-142.8 482.301,-132.4479 512.3704,-121.8675 532.8481,-114.8805"/>
<text text-anchor="middle" x="471.75" y="-147" font-family="Times,serif" font-size="14.00" fill="#000000">55.41</text>
</g>
<!-- T2&#45;&#45;T0 -->
<g id="edge2" class="edge">
<title>T2--T0</title>
<path fill="none" stroke="#000000" d="M348.6967,-178.7751C368.1012,-149.5095 411.8642,-89.0168 463,-54 484.0513,-39.5845 511.665,-29.9024 531.5089,-24.2435"/>
<text text-anchor="middle" x="437.75" y="-102.6" font-family="Times,serif" font-size="14.00" fill="#000000">52.26</text>
</g>
<!-- T3 -->
<g id="node4" class="node">
<title>T3</title>
<ellipse fill="#d3d3d3" stroke="#000000" cx="266" cy="-284.4" rx="27" ry="18"/>
<text text-anchor="middle" x="266" y="-280.2" font-family="Times,serif" font-size="14.00" fill="#000000">T3</text>
</g>
<!-- T3&#45;&#45;T1 -->
<g id="edge5" class="edge">
<title>T3--T1</title>
<path fill="none" stroke="#000000" d="M287.7123,-273.4975C328.1482,-252.9113 417.2996,-206.189 488,-159.6 506.3891,-147.4822 526.2458,-132.0128 539.915,-120.956"/>
<text text-anchor="middle" x="473.75" y="-191.4" font-family="Times,serif" font-size="14.00" fill="#000000">47.45</text>
</g>
<!-- T3&#45;&#45;T0 -->
<g id="edge4" class="edge">
<title>T3--T0</title>
<path fill="none" stroke="#000000" d="M259.6358,-266.4022C256.9311,-256.003 255.1811,-242.803 259,-231.6 286.4043,-151.2072 319.0694,-141.0904 386,-88.8 408.206,-71.4513 413.4873,-65.966 439,-54 469.2505,-39.8118 506.4511,-29.5473 530.8982,-23.6931"/>
<text text-anchor="middle" x="330.75" y="-147" font-family="Times,serif" font-size="14.00" fill="#000000">46.46</text>
</g>
<!-- T3&#45;&#45;T2 -->
<g id="edge6" class="edge">
<title>T3--T2</title>
<path fill="none" stroke="#000000" d="M262.1636,-266.4397C260.8371,-255.5512 261.0338,-241.8331 267.5,-231.6 277.4107,-215.9158 296.4741,-206.7622 312.281,-201.6132"/>
<text text-anchor="middle" x="283.75" y="-235.8" font-family="Times,serif" font-size="14.00" fill="#000000">37.16</text>
</g>
<!-- T4 -->
<g id="node5" class="node">
<title>T4</title>
<ellipse fill="#d3d3d3" stroke="#000000" cx="592" cy="-373.2" rx="27" ry="18"/>
<text text-anchor="middle" x="592" y="-369" font-family="Times,serif" font-size="14.00" fill="#000000">T4</text>
</g>
<!-- T4&#45;&#45;T1 -->
<g id="edge8" class="edge">
<title>T4--T1</title>
<path fill="none" stroke="#000000" d="M587.7435,-355.1254C582.214,-330.9522 572.6598,-286.6944 567.5,-248.4 561.5749,-204.4259 558.791,-152.2855 557.6602,-125.2028"/>
<text text-anchor="middle" x="582.75" y="-235.8" font-family="Times,serif" font-size="14.00" fill="#000000">37.75</text>
</g>
<!-- T4&#45;&#45;T0 -->
<g id="edge7" class="edge">
<title>T4--T0</title>
<path fill="none" stroke="#000000" d="M596.8429,-355.2568C609.4118,-305.0674 639.013,-159.9872 593,-54 589.1985,-45.2436 582.1973,-37.4682 575.3727,-31.4045"/>
<text text-anchor="middle" x="632.75" y="-191.4" font-family="Times,serif" font-size="14.00" fill="#000000">35.83</text>
</g>
<!-- T4&#45;&#45;T2 -->
<g id="edge9" class="edge">
<title>T4--T2</title>
<path fill="none" stroke="#000000" d="M569.7251,-362.9875C554.9002,-356.0388 535.0831,-346.4572 518,-337.2 505.2404,-330.2856 503.3535,-326.0833 490,-320.4 461.8264,-308.4092 448.295,-320.3649 423.5,-302.4 393.0143,-280.3119 401.3461,-260.3147 377,-231.6 370.4451,-223.8689 362.3227,-216.135 355.1901,-209.8281"/>
<text text-anchor="middle" x="439.75" y="-280.2" font-family="Times,serif" font-size="14.00" fill="#000000">28.49</text>
</g>
<!-- T4&#45;&#45;T3 -->
<g id="edge10" class="edge">
<title>T4--T3</title>
<path fill="none" stroke="#000000" d="M565.6935,-368.9789C538.0464,-363.8944 493.7589,-353.8865 458.5,-337.2 446.8951,-331.7079 446.7477,-325.5796 435,-320.4 387.5133,-299.4628 327.0289,-290.383 292.8002,-286.6963"/>
<text text-anchor="middle" x="473.75" y="-324.6" font-family="Times,serif" font-size="14.00" fill="#000000">23.83</text>
</g>
<!-- T5 -->
<g id="node6" class="node">
<title>T5</title>
<ellipse fill="#d3d3d3" stroke="#000000" cx="610" cy="-462" rx="27" ry="18"/>
<text text-anchor="middle" x="610" y="-457.8" font-family="Times,serif" font-size="14.00" fill="#000000">T5</text>
</g>
<!-- T5&#45;&#45;T1 -->
<g id="edge12" class="edge">
<title>T5--T1</title>
<path fill="none" stroke="#000000" d="M619.2447,-444.8717C642.7243,-398.8689 699.5992,-269.8683 653,-177.6 637.876,-147.6538 603.4499,-127.2563 580.2074,-116.3144"/>
<text text-anchor="middle" x="685.75" y="-280.2" font-family="Times,serif" font-size="14.00" fill="#000000">16.65</text>
</g>
<!-- T5&#45;&#45;T0 -->
<g id="edge11" class="edge">
<title>T5--T0</title>
<path fill="none" stroke="#000000" d="M626.6237,-447.6062C633.1805,-441.391 640.4542,-433.7698 646,-426 689.9349,-364.4462 718.0133,-340.897 705,-266.4 687.2052,-164.5304 678.4027,-131.5574 610,-54 601.1709,-43.9892 588.9736,-35.4534 578.5057,-29.2094"/>
<text text-anchor="middle" x="716.75" y="-235.8" font-family="Times,serif" font-size="14.00" fill="#000000">14.49</text>
</g>
<!-- T5&#45;&#45;T2 -->
<g id="edge13" class="edge">
<title>T5--T2</title>
<path fill="none" stroke="#000000" d="M593.2269,-447.34C566.7476,-424.8316 512.916,-381.6007 461,-355.2 438.262,-343.6371 425.6844,-354.0129 406.5,-337.2 386.5269,-319.696 357.3624,-247.0521 344.5024,-213.1592"/>
<text text-anchor="middle" x="419.25" y="-324.6" font-family="Times,serif" font-size="14.00" fill="#000000">9.22</text>
</g>
<!-- T5&#45;&#45;T3 -->
<g id="edge14" class="edge">
<title>T5--T3</title>
<path fill="none" stroke="#000000" d="M584.857,-454.9881C551.8099,-445.7092 496.8931,-430.0502 488,-426 477.2092,-421.0856 338.0604,-331.1086 285.7233,-297.1922"/>
<text text-anchor="middle" x="444.25" y="-369" font-family="Times,serif" font-size="14.00" fill="#000000">4.91</text>
</g>
<!-- T5&#45;&#45;T4 -->
<g id="edge15" class="edge">
<title>T5--T4</title>
<path fill="none" stroke="#000000" d="M606.3574,-444.03C603.2345,-428.6236 598.7585,-406.542 595.6372,-391.1433"/>
<text text-anchor="middle" x="610.75" y="-413.4" font-family="Times,serif" font-size="14.00" fill="#000000">0.0</text>
</g>
<!-- T6 -->
<g id="node7" class="node">
<title>T6</title>
<ellipse fill="#d3d3d3" stroke="#000000" cx="449" cy="-550.8" rx="27" ry="18"/>
<text text-anchor="middle" x="449" y="-546.6" font-family="Times,serif" font-size="14.00" fill="#000000">T6</text>
</g>
<!-- T6&#45;&#45;T1 -->
<g id="edge17" class="edge">
<title>T6--T1</title>
<path fill="none" stroke="#000000" d="M453.668,-532.9794C466.5064,-483.9201 502.1126,-347.5314 513,-302.4 528.7538,-237.096 545.7623,-159.0841 553.1796,-124.6426"/>
<text text-anchor="middle" x="523.75" y="-324.6" font-family="Times,serif" font-size="14.00" fill="#000000">78.93</text>
</g>
<!-- T6&#45;&#45;T0 -->
<g id="edge16" class="edge">
<title>T6--T0</title>
<path fill="none" stroke="#000000" d="M450.0096,-532.6051C452.3861,-486.7723 457.3853,-369.2194 447,-355.2 431.1864,-333.8527 405.7042,-358.6279 390,-337.2 385.5862,-331.1776 385.4794,-326.3426 390,-320.4 408.1488,-296.5423 433.0872,-322.8547 455,-302.4 476.4964,-282.334 477,-269.4065 477,-240 477,-240 477,-240 477,-106.8 477,-71.5245 512.2783,-43.9403 535.9809,-29.3882"/>
<text text-anchor="middle" x="490.75" y="-280.2" font-family="Times,serif" font-size="14.00" fill="#000000">72.35</text>
</g>
<!-- T6&#45;&#45;T2 -->
<g id="edge18" class="edge">
<title>T6--T2</title>
<path fill="none" stroke="#000000" d="M427.727,-539.6687C417.4125,-533.4447 405.4581,-524.9031 397,-514.8 358.2274,-468.4867 353.7266,-450.1347 340.5,-391.2 326.1469,-327.2459 332.0147,-248.5485 335.7719,-213.6878"/>
<text text-anchor="middle" x="356.75" y="-369" font-family="Times,serif" font-size="14.00" fill="#000000">59.02</text>
</g>
<!-- T6&#45;&#45;T3 -->
<g id="edge19" class="edge">
<title>T6--T3</title>
<path fill="none" stroke="#000000" d="M423.1672,-545.5434C403.641,-540.4617 377.1824,-531.0737 359,-514.8 325.6491,-484.9501 328.9728,-467.2068 311.5,-426 293.1541,-382.7341 277.8966,-329.4177 270.6088,-302.2094"/>
<text text-anchor="middle" x="327.75" y="-413.4" font-family="Times,serif" font-size="14.00" fill="#000000">50.73</text>
</g>
<!-- T6&#45;&#45;T4 -->
<g id="edge20" class="edge">
<title>T6--T4</title>
<path fill="none" stroke="#000000" d="M456.5039,-533.4069C469.7883,-504.3505 499.9622,-445.55 541,-409.2 550.7354,-400.5767 562.5499,-392.1275 572.3553,-385.5841"/>
<text text-anchor="middle" x="523.75" y="-457.8" font-family="Times,serif" font-size="14.00" fill="#000000">40.49</text>
</g>
<!-- T6&#45;&#45;T5 -->
<g id="edge21" class="edge">
<title>T6--T5</title>
<path fill="none" stroke="#000000" d="M473.7625,-543.0337C492.5393,-536.6687 518.6655,-526.775 540,-514.8 545.5088,-511.7079 573.3063,-490.425 592.1706,-475.8426"/>
<text text-anchor="middle" x="577.75" y="-502.2" font-family="Times,serif" font-size="14.00" fill="#000000">18.23</text>
</g>
<!-- T7 -->
<g id="node8" class="node">
<title>T7</title>
<ellipse fill="#d3d3d3" stroke="#000000" cx="461" cy="-639.6" rx="27" ry="18"/>
<text text-anchor="middle" x="461" y="-635.4" font-family="Times,serif" font-size="14.00" fill="#000000">T7</text>
</g>
<!-- T7&#45;&#45;T1 -->
<g id="edge23" class="edge">
<title>T7--T1</title>
<path fill="none" stroke="#000000" d="M485.4338,-631.0972C513.4283,-620.3211 559.2594,-599.3892 589,-568.8 698.3445,-456.3356 720.4989,-404.3878 737,-248.4 743.5176,-186.7882 697.8653,-176.6893 646,-142.8 626.0472,-129.7626 600.615,-120.0575 582.0507,-114.0298"/>
<text text-anchor="middle" x="735.75" y="-369" font-family="Times,serif" font-size="14.00" fill="#000000">55.58</text>
</g>
<!-- T7&#45;&#45;T0 -->
<g id="edge22" class="edge">
<title>T7--T0</title>
<path fill="none" stroke="#000000" d="M434.346,-636.4818C394.3194,-630.4364 318.6332,-613.5167 274,-568.8 157.7825,-452.3651 104,-404.5102 104,-240 104,-240 104,-240 104,-106.8 104,-63.1223 432.4969,-29.4391 530.0194,-20.4018"/>
<text text-anchor="middle" x="128.75" y="-324.6" font-family="Times,serif" font-size="14.00" fill="#000000">52.47</text>
</g>
<!-- T7&#45;&#45;T2 -->
<g id="edge24" class="edge">
<title>T7--T2</title>
<path fill="none" stroke="#000000" d="M437.5349,-630.6336C420.2523,-623.7969 396.3225,-613.8406 376,-603.6 284.3699,-557.4272 256.6,-524.6833 228.5,-426 223.4225,-408.1686 187.8784,-380.8603 230,-266.4 242.9306,-231.2627 284.9505,-211.8395 312.6045,-202.5811"/>
<text text-anchor="middle" x="244.75" y="-413.4" font-family="Times,serif" font-size="14.00" fill="#000000">43.95</text>
</g>
<!-- T7&#45;&#45;T3 -->
<g id="edge25" class="edge">
<title>T7--T3</title>
<path fill="none" stroke="#000000" d="M439.9401,-628.005C401.1423,-605.3551 319.0972,-551.1602 283.5,-480 253.8326,-420.6937 259.144,-338.5963 263.4081,-302.5738"/>
<text text-anchor="middle" x="299.75" y="-457.8" font-family="Times,serif" font-size="14.00" fill="#000000">37.43</text>
</g>
<!-- T7&#45;&#45;T4 -->
<g id="edge26" class="edge">
<title>T7--T4</title>
<path fill="none" stroke="#000000" d="M476.3368,-624.3512C481.4948,-618.3584 486.7573,-611.1165 490,-603.6 508.7657,-560.1015 476.7991,-536.4308 504.5,-498 515.0764,-483.3269 528.2913,-492.8705 541,-480 566.1203,-454.56 580.6534,-414.3636 587.3864,-391.2229"/>
<text text-anchor="middle" x="519.75" y="-502.2" font-family="Times,serif" font-size="14.00" fill="#000000">28.76</text>
</g>
<!-- T7&#45;&#45;T5 -->
<g id="edge27" class="edge">
<title>T7--T5</title>
<path fill="none" stroke="#000000" d="M482.8531,-628.715C494.1704,-622.3933 507.7301,-613.6886 518,-603.6 544.8561,-577.218 537.2491,-558.774 564.5,-532.8 575.8937,-521.9401 585.384,-527.2614 595,-514.8 602.6846,-504.8414 606.4325,-491.1147 608.2603,-480.1535"/>
<text text-anchor="middle" x="576.25" y="-546.6" font-family="Times,serif" font-size="14.00" fill="#000000">9.02</text>
</g>
<!-- T7&#45;&#45;T6 -->
<g id="edge28" class="edge">
<title>T7--T6</title>
<path fill="none" stroke="#000000" d="M458.5716,-621.63C456.4897,-606.2236 453.5057,-584.142 451.4248,-568.7433"/>
<text text-anchor="middle" x="471.75" y="-591" font-family="Times,serif" font-size="14.00" fill="#000000">59.28</text>
</g>
<!-- T8 -->
<g id="node9" class="node">
<title>T8</title>
<ellipse fill="#d3d3d3" stroke="#000000" cx="608" cy="-728.4" rx="27" ry="18"/>
<text text-anchor="middle" x="608" y="-724.2" font-family="Times,serif" font-size="14.00" fill="#000000">T8</text>
</g>
<!-- T8&#45;&#45;T1 -->
<g id="edge30" class="edge">
<title>T8--T1</title>
<path fill="none" stroke="#000000" d="M622.8759,-713.0109C628.3457,-706.8905 634.3363,-699.5992 639,-692.4 671.9917,-641.4715 674.5067,-625.1579 697,-568.8 753.2608,-427.8364 779.5715,-380.6627 751,-231.6 746.2106,-206.6126 748.1577,-197.2529 732,-177.6 694.4306,-131.9038 622.8413,-115.4492 583.8825,-109.7182"/>
<text text-anchor="middle" x="769.75" y="-413.4" font-family="Times,serif" font-size="14.00" fill="#000000">60.31</text>
</g>
<!-- T8&#45;&#45;T0 -->
<g id="edge29" class="edge">
<title>T8--T0</title>
<path fill="none" stroke="#000000" d="M628.2225,-716.1539C637.8526,-709.768 649.1659,-701.415 658,-692.4 671.1499,-678.9808 672.6638,-673.9043 682,-657.6 741.821,-553.1318 797.1279,-529.3722 790,-409.2 783.828,-305.1443 803.7558,-268.6469 753,-177.6 715.2642,-109.9086 693.0594,-99.0514 630,-54 614.5926,-42.9926 595.3138,-33.645 580.4379,-27.2355"/>
<text text-anchor="middle" x="804.75" y="-369" font-family="Times,serif" font-size="14.00" fill="#000000">57.62</text>
</g>
<!-- T8&#45;&#45;T2 -->
<g id="edge31" class="edge">
<title>T8--T2</title>
<path fill="none" stroke="#000000" d="M588.2371,-715.7221C584.3066,-713.6552 580.1183,-711.7516 576,-710.4 417.336,-658.3278 345.3265,-746.5528 204,-657.6 164.711,-632.871 166.3779,-611.8483 149,-568.8 107.1412,-465.1079 57.1508,-419.4751 109,-320.4 149.8335,-242.374 260.8081,-210.8709 311.7713,-200.2378"/>
<text text-anchor="middle" x="124.75" y="-457.8" font-family="Times,serif" font-size="14.00" fill="#000000">49.54</text>
</g>
<!-- T8&#45;&#45;T3 -->
<g id="edge32" class="edge">
<title>T8--T3</title>
<path fill="none" stroke="#000000" d="M588.0981,-716.1072C584.1804,-714.0047 580.0324,-711.9896 576,-710.4 544.5105,-697.9867 534.0495,-703.2861 502,-692.4 484.5153,-686.461 481.4429,-681.6607 464,-675.6 343.0317,-633.5682 279.0283,-690.5407 185,-603.6 94.9558,-520.3432 212.6729,-352.5088 253.2053,-300.2817"/>
<text text-anchor="middle" x="169.75" y="-502.2" font-family="Times,serif" font-size="14.00" fill="#000000">40.36</text>
</g>
<!-- T8&#45;&#45;T4 -->
<g id="edge33" class="edge">
<title>T8--T4</title>
<path fill="none" stroke="#000000" d="M615.7901,-710.9983C618.2626,-705.1507 620.8975,-698.5506 623,-692.4 658.8621,-587.4878 677.2125,-550.3881 646,-444 639.3851,-421.4529 621.5882,-400.7207 608.2201,-387.597"/>
<text text-anchor="middle" x="676.75" y="-546.6" font-family="Times,serif" font-size="14.00" fill="#000000">35.09</text>
</g>
<!-- T8&#45;&#45;T5 -->
<g id="edge34" class="edge">
<title>T8--T5</title>
<path fill="none" stroke="#000000" d="M608.5636,-710.3991C609.6829,-673.644 612.1514,-587.3128 613,-514.8 613.0874,-507.3338 613.3103,-505.4602 613,-498 612.7602,-492.2351 612.3053,-485.9642 611.8209,-480.2957"/>
<text text-anchor="middle" x="626.75" y="-591" font-family="Times,serif" font-size="14.00" fill="#000000">11.36</text>
</g>
<!-- T8&#45;&#45;T6 -->
<g id="edge35" class="edge">
<title>T8--T6</title>
<path fill="none" stroke="#000000" d="M596.0488,-711.8534C575.9707,-684.5288 533.5728,-628.8191 492,-586.8 484.1937,-578.9099 474.8128,-570.908 466.8078,-564.4585"/>
<text text-anchor="middle" x="569.75" y="-635.4" font-family="Times,serif" font-size="14.00" fill="#000000">64.39</text>
</g>
<!-- T8&#45;&#45;T7 -->
<g id="edge36" class="edge">
<title>T8--T7</title>
<path fill="none" stroke="#000000" d="M584.6153,-719.0949C568.8803,-712.4619 547.909,-702.8893 530.5,-692.4 511.4206,-680.9042 491.3367,-665.201 477.6928,-653.9128"/>
<text text-anchor="middle" x="545.75" y="-679.8" font-family="Times,serif" font-size="14.00" fill="#000000">49.67</text>
</g>
<!-- T9 -->
<g id="node10" class="node">
<title>T9</title>
<ellipse fill="#d3d3d3" stroke="#000000" cx="608" cy="-817.2" rx="27" ry="18"/>
<text text-anchor="middle" x="608" y="-813" font-family="Times,serif" font-size="14.00" fill="#000000">T9</text>
</g>
<!-- T9&#45;&#45;T1 -->
<g id="edge38" class="edge">
<title>T9--T1</title>
<path fill="none" stroke="#000000" d="M634.887,-815.0354C708.5223,-808.3733 908,-785.0935 908,-728.4 908,-728.4 908,-728.4 908,-417.6 908,-268.354 847.1907,-212.0821 715,-142.8 672.5139,-120.5327 616.5355,-111.9574 583.8828,-108.7131"/>
<text text-anchor="middle" x="923.75" y="-457.8" font-family="Times,serif" font-size="14.00" fill="#000000">70.17</text>
</g>
<!-- T9&#45;&#45;T0 -->
<g id="edge37" class="edge">
<title>T9--T0</title>
<path fill="none" stroke="#000000" d="M635.0585,-816.3283C718.7806,-812.9052 968,-796.9576 968,-728.4 968,-728.4 968,-728.4 968,-106.8 968,-67.334 674.7256,-31.1796 583.6502,-20.9034"/>
<text text-anchor="middle" x="983.75" y="-413.4" font-family="Times,serif" font-size="14.00" fill="#000000">65.31</text>
</g>
<!-- T9&#45;&#45;T2 -->
<g id="edge39" class="edge">
<title>T9--T2</title>
<path fill="none" stroke="#000000" d="M580.8741,-816.5225C490.8533,-814.072 202.6349,-804.5517 113,-781.2 59.3563,-767.2247 0,-783.8342 0,-728.4 0,-728.4 0,-728.4 0,-284.4 0,-220.2395 230.7053,-201.4829 310.9114,-196.9007"/>
<text text-anchor="middle" x="15.75" y="-502.2" font-family="Times,serif" font-size="14.00" fill="#000000">54.05</text>
</g>
<!-- T9&#45;&#45;T3 -->
<g id="edge40" class="edge">
<title>T9--T3</title>
<path fill="none" stroke="#000000" d="M580.9418,-815.813C468.8799,-809.7159 47,-783.1277 47,-728.4 47,-728.4 47,-728.4 47,-506.4 47,-449.5539 194.3679,-336.5843 247.3282,-297.8213"/>
<text text-anchor="middle" x="62.75" y="-546.6" font-family="Times,serif" font-size="14.00" fill="#000000">46.32</text>
</g>
<!-- T9&#45;&#45;T4 -->
<g id="edge41" class="edge">
<title>T9--T4</title>
<path fill="none" stroke="#000000" d="M634.5972,-813.6436C699.554,-804.2164 861,-775.998 861,-728.4 861,-728.4 861,-728.4 861,-595.2 861,-469.253 683.418,-401.4152 616.8247,-380.4038"/>
<text text-anchor="middle" x="876.75" y="-591" font-family="Times,serif" font-size="14.00" fill="#000000">36.78</text>
</g>
<!-- T9&#45;&#45;T5 -->
<g id="edge42" class="edge">
<title>T9--T5</title>
<path fill="none" stroke="#000000" d="M627.6454,-804.7942C656.7342,-785.1125 710.0743,-743.6597 731,-692.4 757.8428,-626.6456 760.1507,-593.331 723,-532.8 702.8978,-500.0468 661.3524,-480.001 634.6253,-469.9545"/>
<text text-anchor="middle" x="765.75" y="-635.4" font-family="Times,serif" font-size="14.00" fill="#000000">15.27</text>
</g>
<!-- T9&#45;&#45;T6 -->
<g id="edge43" class="edge">
<title>T9--T6</title>
<path fill="none" stroke="#000000" d="M585.1386,-807.1694C541.9372,-786.6389 450.3645,-735.1284 425,-657.6 414.8361,-626.5334 429.1639,-589.0013 439.6609,-567.7157"/>
<text text-anchor="middle" x="456.75" y="-679.8" font-family="Times,serif" font-size="14.00" fill="#000000">78.79</text>
</g>
<!-- T9&#45;&#45;T7 -->
<g id="edge44" class="edge">
<title>T9--T7</title>
<path fill="none" stroke="#000000" d="M592.6958,-802.2304C578.6373,-788.2314 557.4724,-766.521 540.5,-746.4 514.5677,-715.657 487.1601,-677.3663 472.2628,-655.9906"/>
<text text-anchor="middle" x="555.75" y="-724.2" font-family="Times,serif" font-size="14.00" fill="#000000">54.09</text>
</g>
<!-- T9&#45;&#45;T8 -->
<g id="edge45" class="edge">
<title>T9--T8</title>
<path fill="none" stroke="#000000" d="M608,-798.8006C608,-783.4587 608,-761.722 608,-746.472"/>
<text text-anchor="middle" x="623.75" y="-768.6" font-family="Times,serif" font-size="14.00" fill="#000000">58.49</text>
</g>
</g>
</svg>