<?xml version="1.0" encoding="UTF-8" standalone="no"?>
<!DOCTYPE svg PUBLIC "-//W3C//DTD SVG 1.1//EN" "http://www.w3.org/Graphics/SVG/1.1/DTD/svg11.dtd">
<!-- Generated by graphviz version 2.40.1 (20161225.0304)
 -->
<!-- Title: G_distance_2000_20 Pages: 1 -->
<svg width="1008pt" height="843pt" viewBox="0.00 0.00 1007.50 843.20" xmlns="http://www.w3.org/2000/svg" xmlns:xlink="http://www.w3.org/1999/xlink">
<g id="graph0" class="graph" transform="scale(1 1) rotate(0) translate(4 839.2)">
<title>G_distance_2000_20</title>
<polygon fill="#ffffff" stroke="transparent" points="-4,4 -4,-839.2 1003.5,-839.2 1003.5,4 -4,4"/>
<!-- T1 -->
<g id="node1" class="node">
<title>T1</title>
<ellipse fill="#d3d3d3" stroke="#000000" cx="557" cy="-106.8" rx="27" ry="18"/>
<text text-anchor="middle" x="557" y="-102.6" font-family="Times,serif" font-size="14.00" fill="#000000">T1</text>
</g>
<!-- T0 -->
<g id="node2" class="node">
<title>T0</title>
<ellipse fill="#d3d3d3" stroke="#000000" cx="557" cy="-18" rx="27" ry="18"/>
<text text-anchor="middle" x="557" y="-13.8" font-family="Times,serif" font-size="14.00" fill="#000000">T0</text>
</g>
<!-- T1&#45;&#45;T0 -->
<g id="edge1" class="edge">
<title>T1--T0</title>
<path fill="none" stroke="#000000" d="M557,-88.4006C557,-73.0587 557,-51.322 557,-36.072"/>
<text text-anchor="middle" x="572.75" y="-58.2" font-family="Times,serif" font-size="14.00" fill="#000000">66.42</text>
</g>
<!-- T2 -->
<g id="node3" class="node">
<title>T2</title>
<ellipse fill="#d3d3d3" stroke="#000000" cx="338" cy="-195.6" rx="27" ry="18"/>
<text text-anchor="middle" x="338" y="-191.4" font-family="Times,serif" font-size="14.00" fill="#000000">T2</text>
</g>
<!-- T2&#45;&#45;T1 -->
<g id="edge3" class="edge">
<title>T2--T1</title>
<path fill="none" stroke="#000000" d="M360.0642,-185.1707C383.7035,-174.1383 422.4282,-156.4706 456.5,-142.8 482.301,-132.4479 512.3704,-121.8675 532.8481,-114.8805"/>
<text text-anchor="middle" x="471.75" y="-147" font-family="Times,serif" font-size="14.00" fill="#000000">54.91</text>
</g>
<!-- T2&#45;&#45;T0 -->
<g id="edge2" class="edge">
<title>T2--T0</title>
<path fill="none" stroke="#000000" d="M348.7417,-178.8404C368.2159,-149.6758 412.0832,-89.3345 463,-54 483.9611,-39.4537 511.5875,-29.79 531.4589,-24.171"/>
<text text-anchor="middle" x="434.25" y="-102.6" font-family="Times,serif" font-size="14.00" fill="#000000">51.7</text>
</g>
<!-- T3 -->
<g id="node4" class="node">
<title>T3</title>
<ellipse fill="#d3d3d3" stroke="#000000" cx="270" cy="-284.4" rx="27" ry="18"/>
<text text-anchor="middle" x="270" y="-280.2" font-family="Times,serif" font-size="14.00" fill="#000000">T3</text>
</g>
<!-- T3&#45;&#45;T1 -->
<g id="edge5" class="edge">
<title>T3--T1</title>
<path fill="none" stroke="#000000" d="M291.6084,-273.2654C331.4205,-252.4826 418.6269,-205.7036 488,-159.6 506.3417,-147.4106 526.2051,-131.9512 539.8887,-120.9163"/>
<text text-anchor="middle" x="471.25" y="-191.4" font-family="Times,serif" font-size="14.00" fill="#000000">46.8</text>
</g>
<!-- T3&#45;&#45;T0 -->
<g id="edge4" class="edge">
<title>T3--T0</title>
<path fill="none" stroke="#000000" d="M264.8848,-266.4436C262.763,-256.0582 261.513,-242.8582 265,-231.6 289.6118,-152.1373 320.4471,-140.0141 386,-88.8 408.206,-71.4513 413.4873,-65.966 439,-54 469.2505,-39.8118 506.4511,-29.5473 530.8982,-23.6931"/>
<text text-anchor="middle" x="332.75" y="-147" font-family="Times,serif" font-size="14.00" fill="#000000">45.79</text>
</g>
<!-- T3&#45;&#45;T2 -->
<g id="edge6" class="edge">
<title>T3--T2</title>
<path fill="none" stroke="#000000" d="M267.5318,-266.4331C266.9548,-255.5421 267.9464,-241.8237 274.5,-231.6 283.3223,-217.8371 299.3774,-208.8034 313.1358,-203.2275"/>
<text text-anchor="middle" x="287.25" y="-235.8" font-family="Times,serif" font-size="14.00" fill="#000000">36.4</text>
</g>
<!-- T4 -->
<g id="node5" class="node">
<title>T4</title>
<ellipse fill="#d3d3d3" stroke="#000000" cx="592" cy="-373.2" rx="27" ry="18"/>
<text text-anchor="middle" x="592" y="-369" font-family="Times,serif" font-size="14.00" fill="#000000">T4</text>
</g>
<!-- T4&#45;&#45;T1 -->
<g id="edge8" class="edge">
<title>T4--T1</title>
<path fill="none" stroke="#000000" d="M587.7435,-355.1254C582.214,-330.9522 572.6598,-286.6944 567.5,-248.4 561.5749,-204.4259 558.791,-152.2855 557.6602,-125.2028"/>
<text text-anchor="middle" x="582.75" y="-235.8" font-family="Times,serif" font-size="14.00" fill="#000000">37.88</text>
</g>
<!-- T4&#45;&#45;T0 -->
<g id="edge7" class="edge">
<title>T4--T0</title>
<path fill="none" stroke="#000000" d="M596.8429,-355.2568C609.4118,-305.0674 639.013,-159.9872 593,-54 589.1985,-45.2436 582.1973,-37.4682 575.3727,-31.4045"/>
<text text-anchor="middle" x="632.75" y="-191.4" font-family="Times,serif" font-size="14.00" fill="#000000">35.91</text>
</g>
<!-- T4&#45;&#45;T2 -->
<g id="edge9" class="edge">
<title>T4--T2</title>
<path fill="none" stroke="#000000" d="M569.7251,-362.9875C554.9002,-356.0388 535.0831,-346.4572 518,-337.2 505.2404,-330.2856 503.3535,-326.0833 490,-320.4 461.8264,-308.4092 448.295,-320.3649 423.5,-302.4 393.0143,-280.3119 401.3461,-260.3147 377,-231.6 370.4451,-223.8689 362.3227,-216.135 355.1901,-209.8281"/>
<text text-anchor="middle" x="439.75" y="-280.2" font-family="Times,serif" font-size="14.00" fill="#000000">28.39</text>
</g>
<!-- T4&#45;&#45;T3 -->
<g id="edge10" class="edge">
<title>T4--T3</title>
<path fill="none" stroke="#000000" d="M565.6935,-368.9789C538.0464,-363.8944 493.7589,-353.8865 458.5,-337.2 446.8951,-331.7079 446.7349,-325.6086 435,-320.4 388.9065,-299.9411 330.2675,-290.7229 296.7484,-286.8761"/>
<text text-anchor="middle" x="473.75" y="-324.6" font-family="Times,serif" font-size="14.00" fill="#000000">23.62</text>
</g>
<!-- T5 -->
<g id="node6" class="node">
<title>T5</title>
<ellipse fill="#d3d3d3" stroke="#000000" cx="610" cy="-462" rx="27" ry="18"/>
<text text-anchor="middle" x="610" y="-457.8" font-family="Times,serif" font-size="14.00" fill="#000000">T5</text>
</g>
<!-- T5&#45;&#45;T1 -->
<g id="edge12" class="edge">
<title>T5--T1</title>
<path fill="none" stroke="#000000" d="M619.2447,-444.8717C642.7243,-398.8689 699.5992,-269.8683 653,-177.6 637.876,-147.6538 603.4499,-127.2563 580.2074,-116.3144"/>
<text text-anchor="middle" x="685.75" y="-280.2" font-family="Times,serif" font-size="14.00" fill="#000000">16.45</text>
</g>
<!-- T5&#45;&#45;T0 -->
<g id="edge11" class="edge">
<title>T5--T0</title>
<path fill="none" stroke="#000000" d="M626.6237,-447.6062C633.1805,-441.391 640.4542,-433.7698 646,-426 689.9349,-364.4462 718.0133,-340.897 705,-266.4 687.2052,-164.5304 678.4027,-131.5574 610,-54 601.1709,-43.9892 588.9736,-35.4534 578.5057,-29.2094"/>
<text text-anchor="middle" x="716.75" y="-235.8" font-family="Times,serif" font-size="14.00" fill="#000000">14.23</text>
</g>
<!-- T5&#45;&#45;T2 -->
<g id="edge13" class="edge">
<title>T5--T2</title>
<path fill="none" stroke="#000000" d="M593.3671,-447.7944C566.5923,-425.5114 511.5964,-382.1125 459,-355.2 437.041,-343.964 424.9587,-353.5622 406.5,-337.2 386.6261,-319.5834 357.41,-246.998 344.5196,-213.1398"/>
<text text-anchor="middle" x="419.25" y="-324.6" font-family="Times,serif" font-size="14.00" fill="#000000">8.85</text>
</g>
<!-- T5&#45;&#45;T3 -->
<g id="edge14" class="edge">
<title>T5--T3</title>
<path fill="none" stroke="#000000" d="M584.8522,-454.9986C551.7995,-445.7319 496.8762,-430.0869 488,-426 466.8882,-416.2794 338.5934,-330.5138 289.2836,-297.3824"/>
<text text-anchor="middle" x="442.25" y="-369" font-family="Times,serif" font-size="14.00" fill="#000000">4.42</text>
</g>
<!-- T5&#45;&#45;T4 -->
<g id="edge15" class="edge">
<title>T5--T4</title>
<path fill="none" stroke="#000000" d="M606.3574,-444.03C603.2345,-428.6236 598.7585,-406.542 595.6372,-391.1433"/>
<text text-anchor="middle" x="610.75" y="-413.4" font-family="Times,serif" font-size="14.00" fill="#000000">0.0</text>
</g>
<!-- T6 -->
<g id="node7" class="node">
<title>T6</title>
<ellipse fill="#d3d3d3" stroke="#000000" cx="449" cy="-550.8" rx="27" ry="18"/>
<text text-anchor="middle" x="449" y="-546.6" font-family="Times,serif" font-size="14.00" fill="#000000">T6</text>
</g>
<!-- T6&#45;&#45;T1 -->
<g id="edge17" class="edge">
<title>T6--T1</title>
<path fill="none" stroke="#000000" d="M453.668,-532.9794C466.5064,-483.9201 502.1126,-347.5314 513,-302.4 528.7538,-237.096 545.7623,-159.0841 553.1796,-124.6426"/>
<text text-anchor="middle" x="523.75" y="-324.6" font-family="Times,serif" font-size="14.00" fill="#000000">78.75</text>
</g>
<!-- T6&#45;&#45;T0 -->
<g id="edge16" class="edge">
<title>T6--T0</title>
<path fill="none" stroke="#000000" d="M450.0096,-532.6051C452.3861,-486.7723 457.3853,-369.2194 447,-355.2 431.1864,-333.8527 405.7042,-358.6279 390,-337.2 385.5862,-331.1776 385.4794,-326.3426 390,-320.4 408.1488,-296.5423 433.0872,-322.8547 455,-302.4 476.4964,-282.334 477,-269.4065 477,-240 477,-240 477,-240 477,-106.8 477,-71.5245 512.2783,-43.9403 535.9809,-29.3882"/>
<text text-anchor="middle" x="490.75" y="-280.2" font-family="Times,serif" font-size="14.00" fill="#000000">72.01</text>
</g>
<!-- T6&#45;&#45;T2 -->
<g id="edge18" class="edge">
<title>T6--T2</title>
<path fill="none" stroke="#000000" d="M427.6104,-539.765C417.2663,-533.5654 405.3205,-525.0167 397,-514.8 359.3112,-468.5218 357.3757,-449.4781 344.5,-391.2 330.3532,-327.1684 333.8427,-248.5104 336.4169,-213.6738"/>
<text text-anchor="middle" x="360.75" y="-369" font-family="Times,serif" font-size="14.00" fill="#000000">58.56</text>
</g>
<!-- T6&#45;&#45;T3 -->
<g id="edge19" class="edge">
<title>T6--T3</title>
<path fill="none" stroke="#000000" d="M422.6429,-546.0975C402.8349,-541.3137 376.2528,-532.0562 359,-514.8 297.7572,-453.5453 277.75,-345.5066 272.0345,-302.6533"/>
<text text-anchor="middle" x="318.75" y="-413.4" font-family="Times,serif" font-size="14.00" fill="#000000">50.13</text>
</g>
<!-- T6&#45;&#45;T4 -->
<g id="edge20" class="edge">
<title>T6--T4</title>
<path fill="none" stroke="#000000" d="M456.5039,-533.4069C469.7883,-504.3505 499.9622,-445.55 541,-409.2 550.7354,-400.5767 562.5499,-392.1275 572.3553,-385.5841"/>
<text text-anchor="middle" x="523.75" y="-457.8" font-family="Times,serif" font-size="14.00" fill="#000000">40.71</text>
</g>
<!-- T6&#45;&#45;T5 -->
<g id="edge21" class="edge">
<title>T6--T5</title>
<path fill="none" stroke="#000000" d="M473.7625,-543.0337C492.5393,-536.6687 518.6655,-526.775 540,-514.8 545.5088,-511.7079 573.3063,-490.425 592.1706,-475.8426"/>
<text text-anchor="middle" x="577.75" y="-502.2" font-family="Times,serif" font-size="14.00" fill="#000000">18.05</text>
</g>
<!-- T7 -->
<g id="node8" class="node">
<title>T7</title>
<ellipse fill="#d3d3d3" stroke="#000000" cx="464" cy="-639.6" rx="27" ry="18"/>
<text text-anchor="middle" x="464" y="-635.4" font-family="Times,serif" font-size="14.00" fill="#000000">T7</text>
</g>
<!-- T7&#45;&#45;T1 -->
<g id="edge23" class="edge">
<title>T7--T1</title>
<path fill="none" stroke="#000000" d="M487.8027,-630.9031C515.0863,-619.9447 559.7917,-598.8417 589,-568.8 698.3445,-456.3356 720.4989,-404.3878 737,-248.4 743.5176,-186.7882 697.8653,-176.6893 646,-142.8 626.0472,-129.7626 600.615,-120.0575 582.0507,-114.0298"/>
<text text-anchor="middle" x="735.75" y="-369" font-family="Times,serif" font-size="14.00" fill="#000000">55.16</text>
</g>
<!-- T7&#45;&#45;T0 -->
<g id="edge22" class="edge">
<title>T7--T0</title>
<path fill="none" stroke="#000000" d="M436.9808,-637.1347C395.1563,-631.9038 314.7014,-615.9868 268,-568.8 153.1262,-452.7321 104,-403.3026 104,-240 104,-240 104,-240 104,-106.8 104,-63.1223 432.4969,-29.4391 530.0194,-20.4018"/>
<text text-anchor="middle" x="124.25" y="-324.6" font-family="Times,serif" font-size="14.00" fill="#000000">52.0</text>
</g>
<!-- T7&#45;&#45;T2 -->
<g id="edge24" class="edge">
<title>T7--T2</title>
<path fill="none" stroke="#000000" d="M439.7876,-631.1677C421.007,-624.3789 394.4772,-614.2431 372,-603.6 279.0075,-559.5675 251.1737,-525.0991 223.5,-426 212.2497,-385.7129 152.6619,-458.4857 234,-266.4 248.053,-233.2129 287.1945,-213.3942 313.246,-203.4979"/>
<text text-anchor="middle" x="239.75" y="-413.4" font-family="Times,serif" font-size="14.00" fill="#000000">43.38</text>
</g>
<!-- T7&#45;&#45;T3 -->
<g id="edge25" class="edge">
<title>T7--T3</title>
<path fill="none" stroke="#000000" d="M442.0705,-628.8443C400.808,-607.241 312.5385,-554.2164 276.5,-480 247.5589,-420.3998 258.9364,-338.1067 266.0016,-302.2728"/>
<text text-anchor="middle" x="292.75" y="-457.8" font-family="Times,serif" font-size="14.00" fill="#000000">36.74</text>
</g>
<!-- T7&#45;&#45;T4 -->
<g id="edge26" class="edge">
<title>T7--T4</title>
<path fill="none" stroke="#000000" d="M478.0042,-623.7608C482.5391,-617.8156 487.1334,-610.7568 490,-603.6 507.6146,-559.6228 476.7991,-536.4308 504.5,-498 515.0764,-483.3269 528.2913,-492.8705 541,-480 566.1203,-454.56 580.6534,-414.3636 587.3864,-391.2229"/>
<text text-anchor="middle" x="519.75" y="-502.2" font-family="Times,serif" font-size="14.00" fill="#000000">28.72</text>
</g>
<!-- T7&#45;&#45;T5 -->
<g id="edge27" class="edge">
<title>T7--T5</title>
<path fill="none" stroke="#000000" d="M485.1977,-628.1952C495.8037,-621.845 508.3929,-613.2734 518,-603.6 544.5284,-576.8885 537.2491,-558.774 564.5,-532.8 575.8937,-521.9401 585.384,-527.2614 595,-514.8 602.6846,-504.8414 606.4325,-491.1147 608.2603,-480.1535"/>
<text text-anchor="middle" x="576.25" y="-546.6" font-family="Times,serif" font-size="14.00" fill="#000000">8.67</text>
</g>
<!-- T7&#45;&#45;T6 -->
<g id="edge28" class="edge">
<title>T7--T6</title>
<path fill="none" stroke="#000000" d="M460.9645,-621.63C458.3621,-606.2236 454.6321,-584.142 452.031,-568.7433"/>
<text text-anchor="middle" x="472.75" y="-591" font-family="Times,serif" font-size="14.00" fill="#000000">58.91</text>
</g>
<!-- T8 -->
<g id="node9" class="node">
<title>T8</title>
<ellipse fill="#d3d3d3" stroke="#000000" cx="608" cy="-728.4" rx="27" ry="18"/>
<text text-anchor="middle" x="608" y="-724.2" font-family="Times,serif" font-size="14.00" fill="#000000">T8</text>
</g>
<!-- T8&#45;&#45;T1 -->
<g id="edge30" class="edge">
<title>T8--T1</title>
<path fill="none" stroke="#000000" d="M622.8759,-713.0109C628.3457,-706.8905 634.3363,-699.5992 639,-692.4 671.9917,-641.4715 674.5067,-625.1579 697,-568.8 753.2608,-427.8364 779.5715,-380.6627 751,-231.6 746.2106,-206.6126 748.1577,-197.2529 732,-177.6 694.4306,-131.9038 622.8413,-115.4492 583.8825,-109.7182"/>
<text text-anchor="middle" x="769.75" y="-413.4" font-family="Times,serif" font-size="14.00" fill="#000000">59.62</text>
</g>
<!-- T8&#45;&#45;T0 -->
<g id="edge29" class="edge">
<title>T8--T0</title>
<path fill="none" stroke="#000000" d="M628.2225,-716.1539C637.8526,-709.768 649.1659,-701.415 658,-692.4 671.1499,-678.9808 672.6638,-673.9043 682,-657.6 741.821,-553.1318 797.1279,-529.3722 790,-409.2 783.828,-305.1443 803.7558,-268.6469 753,-177.6 715.2642,-109.9086 693.0594,-99.0514 630,-54 614.5926,-42.9926 595.3138,-33.645 580.4379,-27.2355"/>
<text text-anchor="middle" x="804.75" y="-369" font-family="Times,serif" font-size="14.00" fill="#000000">56.88</text>
</g>
<!-- T8&#45;&#45;T2 -->
<g id="edge31" class="edge">
<title>T8--T2</title>
<path fill="none" stroke="#000000" d="M588.2343,-715.7305C584.3041,-713.6628 580.1166,-711.7568 576,-710.4 496.7007,-684.2642 275.252,-701.127 204,-657.6 163.5643,-632.8983 162.5572,-612.811 145,-568.8 103.7759,-465.4629 62.4132,-418.9738 114,-320.4 154.0446,-243.8814 262.0353,-211.6662 311.9945,-200.5501"/>
<text text-anchor="middle" x="122.75" y="-457.8" font-family="Times,serif" font-size="14.00" fill="#000000">48.84</text>
</g>
<!-- T8&#45;&#45;T3 -->
<g id="edge32" class="edge">
<title>T8--T3</title>
<path fill="none" stroke="#000000" d="M588.0941,-716.1174C584.1768,-714.014 580.0299,-711.9959 576,-710.4 544.9314,-698.0962 534.5123,-703.5183 503,-692.4 486.3495,-686.5253 483.6262,-681.5432 467,-675.6 345.1941,-632.0596 280.5285,-690.8167 185,-603.6 148.8303,-570.5774 142.0125,-545.6107 153.5,-498 172.9681,-417.313 231.1886,-334.6451 257.2004,-300.5762"/>
<text text-anchor="middle" x="169.75" y="-502.2" font-family="Times,serif" font-size="14.00" fill="#000000">39.46</text>
</g>
<!-- T8&#45;&#45;T4 -->
<g id="edge33" class="edge">
<title>T8--T4</title>
<path fill="none" stroke="#000000" d="M615.7901,-710.9983C618.2626,-705.1507 620.8975,-698.5506 623,-692.4 658.8621,-587.4878 677.2125,-550.3881 646,-444 639.3851,-421.4529 621.5882,-400.7207 608.2201,-387.597"/>
<text text-anchor="middle" x="676.75" y="-546.6" font-family="Times,serif" font-size="14.00" fill="#000000">35.26</text>
</g>
<!-- T8&#45;&#45;T5 -->
<g id="edge34" class="edge">
<title>T8--T5</title>
<path fill="none" stroke="#000000" d="M608.5636,-710.3991C609.6829,-673.644 612.1514,-587.3128 613,-514.8 613.0874,-507.3338 613.3103,-505.4602 613,-498 612.7602,-492.2351 612.3053,-485.9642 611.8209,-480.2957"/>
<text text-anchor="middle" x="626.75" y="-591" font-family="Times,serif" font-size="14.00" fill="#000000">10.91</text>
</g>
<!-- T8&#45;&#45;T6 -->
<g id="edge35" class="edge">
<title>T8--T6</title>
<path fill="none" stroke="#000000" d="M596.233,-711.7881C576.4449,-684.3695 534.5766,-628.5277 493,-586.8 485.0583,-578.8294 475.4643,-570.8187 467.2645,-564.3842"/>
<text text-anchor="middle" x="569.75" y="-635.4" font-family="Times,serif" font-size="14.00" fill="#000000">63.73</text>
</g>
<!-- T8&#45;&#45;T7 -->
<g id="edge36" class="edge">
<title>T8--T7</title>
<path fill="none" stroke="#000000" d="M584.542,-719.2151C568.7751,-712.6343 547.7959,-703.0748 530.5,-692.4 512.1846,-681.096 493.1307,-665.5121 480.1378,-654.2067"/>
<text text-anchor="middle" x="545.75" y="-679.8" font-family="Times,serif" font-size="14.00" fill="#000000">49.09</text>
</g>
<!-- T9 -->
<g id="node10" class="node">
<title>T9</title>
<ellipse fill="#d3d3d3" stroke="#000000" cx="608" cy="-817.2" rx="27" ry="18"/>
<text text-anchor="middle" x="608" y="-813" font-family="Times,serif" font-size="14.00" fill="#000000">T9</text>
</g>
<!-- T9&#45;&#45;T1 -->
<g id="edge38" class="edge">
<title>T9--T1</title>
<path fill="none" stroke="#000000" d="M634.887,-815.0354C708.5223,-808.3733 908,-785.0935 908,-728.4 908,-728.4 908,-728.4 908,-417.6 908,-268.354 847.1907,-212.0821 715,-142.8 672.5139,-120.5327 616.5355,-111.9574 583.8828,-108.7131"/>
<text text-anchor="middle" x="923.75" y="-457.8" font-family="Times,serif" font-size="14.00" fill="#000000">68.92</text>
</g>
<!-- T9&#45;&#45;T0 -->
<g id="edge37" class="edge">
<title>T9--T0</title>
<path fill="none" stroke="#000000" d="M635.0585,-816.3283C718.7806,-812.9052 968,-796.9576 968,-728.4 968,-728.4 968,-728.4 968,-106.8 968,-67.334 674.7256,-31.1796 583.6502,-20.9034"/>
<text text-anchor="middle" x="983.75" y="-413.4" font-family="Times,serif" font-size="14.00" fill="#000000">64.08</text>
</g>
<!-- T9&#45;&#45;T2 -->
<g id="edge39" class="edge">
<title>T9--T2</title>
<path fill="none" stroke="#000000" d="M580.8741,-816.5225C490.8533,-814.072 202.6349,-804.5517 113,-781.2 59.3563,-767.2247 0,-783.8342 0,-728.4 0,-728.4 0,-728.4 0,-284.4 0,-220.2395 230.7053,-201.4829 310.9114,-196.9007"/>
<text text-anchor="middle" x="15.75" y="-502.2" font-family="Times,serif" font-size="14.00" fill="#000000">52.92</text>
</g>
<!-- T9&#45;&#45;T3 -->
<g id="edge40" class="edge">
<title>T9--T3</title>
<path fill="none" stroke="#000000" d="M580.9418,-815.813C468.8799,-809.7159 47,-783.1277 47,-728.4 47,-728.4 47,-728.4 47,-506.4 47,-394.4105 189.9989,-319.4215 246.975,-293.9878"/>
<text text-anchor="middle" x="62.75" y="-546.6" font-family="Times,serif" font-size="14.00" fill="#000000">45.13</text>
</g>
<!-- T9&#45;&#45;T4 -->
<g id="edge41" class="edge">
<title>T9--T4</title>
<path fill="none" stroke="#000000" d="M634.5972,-813.6436C699.554,-804.2164 861,-775.998 861,-728.4 861,-728.4 861,-728.4 861,-595.2 861,-469.253 683.418,-401.4152 616.8247,-380.4038"/>
<text text-anchor="middle" x="876.75" y="-591" font-family="Times,serif" font-size="14.00" fill="#000000">36.42</text>
</g>
<!-- T9&#45;&#45;T5 -->
<g id="edge42" class="edge">
<title>T9--T5</title>
<path fill="none" stroke="#000000" d="M627.6454,-804.7942C656.7342,-785.1125 710.0743,-743.6597 731,-692.4 757.8428,-626.6456 760.1507,-593.331 723,-532.8 702.8978,-500.0468 661.3524,-480.001 634.6253,-469.9545"/>
<text text-anchor="middle" x="765.75" y="-635.4" font-family="Times,serif" font-size="14.00" fill="#000000">14.67</text>
</g>
<!-- T9&#45;&#45;T6 -->
<g id="edge43" class="edge">
<title>T9--T6</title>
<path fill="none" stroke="#000000" d="M585.4153,-807.0828C542.7523,-786.4022 452.4001,-734.6438 428,-657.6 418.2438,-626.7946 430.8911,-589.491 440.3653,-568.1153"/>
<text text-anchor="middle" x="459.75" y="-679.8" font-family="Times,serif" font-size="14.00" fill="#000000">77.54</text>
</g>
<!-- T9&#45;&#45;T7 -->
<g id="edge44" class="edge">
<title>T9--T7</title>
<path fill="none" stroke="#000000" d="M592.6094,-802.3026C578.4913,-788.3534 557.2874,-766.6756 540.5,-746.4 515.3367,-716.0081 489.2471,-677.9193 474.9748,-656.4158"/>
<text text-anchor="middle" x="555.75" y="-724.2" font-family="Times,serif" font-size="14.00" fill="#000000">53.03</text>
</g>
<!-- T9&#45;&#45;T8 -->
<g id="edge45" class="edge">
<title>T9--T8</title>
<path fill="none" stroke="#000000" d="M608,-798.8006C608,-783.4587 608,-761.722 608,-746.472"/>
<text text-anchor="middle" x="623.75" y="-768.6" font-family="Times,serif" font-size="14.00" fill="#000000">57.08</text>
</g>
</g>
</svg>